<svg width="1440" height="320" viewBox="0 0 1440 320" fill="none" xmlns="http://www.w3.org/2000/svg">
<path d="M87 -47L541 407" stroke="#31AAD7" stroke-width="2"/>
<path d="M720 764C643.913 764 570.04 749.073 500.427 719.627C433.253 691.213 372.947 650.567 321.193 598.807C269.433 547.053 228.787 486.747 200.373 419.573C170.927 349.96 156 276.087 156 200C156 123.913 170.927 50.04 200.373 -19.5733C228.787 -86.7466 269.433 -147.053 321.193 -198.807C372.953 -250.567 433.253 -291.213 500.427 -319.627C570.04 -349.073 643.913 -364 720 -364C796.087 -364 869.96 -349.073 939.573 -319.627C1006.75 -291.213 1067.05 -250.567 1118.81 -198.807C1170.57 -147.047 1211.21 -86.7466 1239.63 -19.5733C1269.07 50.04 1284 123.913 1284 200C1284 276.087 1269.07 349.96 1239.63 419.573C1211.21 486.747 1170.57 547.053 1118.81 598.807C1067.05 650.567 1006.75 691.213 939.573 719.627C869.96 749.073 796.087 764 720 764ZM720 -117.333C635.24 -117.333 555.547 -84.3267 495.613 -24.3867C435.68 35.5467 402.667 115.24 402.667 200C402.667 284.76 435.673 364.453 495.613 424.387C555.547 484.327 635.24 517.333 720 517.333C804.76 517.333 884.453 484.327 944.387 424.387C1004.33 364.453 1037.33 284.76 1037.33 200C1037.33 115.24 1004.33 35.5467 944.387 -24.3867C884.453 -84.32 804.76 -117.333 720 -117.333Z" fill="#36BCEE"/>
<path d="M720 764C643.913 764 570.04 749.073 500.427 719.627C433.253 691.213 372.947 650.567 321.193 598.807C269.433 547.053 228.787 486.747 200.373 419.573C170.927 349.96 156 276.087 156 200C156 123.913 170.927 50.04 200.373 -19.5733C228.787 -86.7466 269.433 -147.053 321.193 -198.807C372.953 -250.567 433.253 -291.213 500.427 -319.627C570.04 -349.073 643.913 -364 720 -364C796.087 -364 869.96 -349.073 939.573 -319.627C1006.75 -291.213 1067.05 -250.567 1118.81 -198.807C1170.57 -147.047 1211.21 -86.7466 1239.63 -19.5733C1269.07 50.04 1284 123.913 1284 200C1284 276.087 1269.07 349.96 1239.63 419.573C1211.21 486.747 1170.57 547.053 1118.81 598.807C1067.05 650.567 1006.75 691.213 939.573 719.627C869.96 749.073 796.087 764 720 764ZM720 -117.333C635.24 -117.333 555.547 -84.3267 495.613 -24.3867C435.68 35.5467 402.667 115.24 402.667 200C402.667 284.76 435.673 364.453 495.613 424.387C555.547 484.327 635.24 517.333 720 517.333C804.76 517.333 884.453 484.327 944.387 424.387C1004.33 364.453 1037.33 284.76 1037.33 200C1037.33 115.24 1004.33 35.5467 944.387 -24.3867C884.453 -84.32 804.76 -117.333 720 -117.333Z" fill="black" fill-opacity="0.1"/>
<path d="M266.209 76.4859C181.437 76.6207 -16.3606 76.7444 -33.6232 76.7718C-55.2015 76.8061 -59.0732 88.3721 -54.464 97.6126C-50.7766 105.005 392.786 544.862 392.786 544.862" stroke="#1E22BE" stroke-width="2"/>
<circle cx="274.111" cy="76.6641" r="7" stroke="#1E22BE" stroke-width="2"/>
<path d="M1177.66 -119C1321.23 24.6354 1452.99 156.453 1482.23 185.702C1518.77 222.264 1505.72 248.38 1482.23 256.214C1463.43 262.482 998 256.214 998 256.214" stroke="#1E22BE" stroke-width="2"/>
<circle cx="994" cy="256" r="3" stroke="#1E22BE" stroke-width="2"/>
<path d="M1039.03 64.2972C1041.98 48.6531 1030.07 35 1014.96 35C1013.43 35 1011.83 35.1422 1010.27 35.4267C1000.42 37.2755 992.56 45.2398 990.783 55.0529C989.752 60.7417 990.747 66.1461 993.094 70.7326C993.343 71.2304 993.414 71.7993 993.236 72.3682L990.107 81.7902C989.645 83.2124 990.747 84.599 992.098 84.599C992.312 84.599 992.56 84.5635 992.774 84.4924L1002.23 81.328C1002.44 81.2569 1002.66 81.2213 1002.87 81.2213C1003.19 81.2213 1003.55 81.2924 1003.83 81.4702C1007.17 83.1768 1010.94 84.1368 1014.92 84.1368C1016.42 84.1368 1017.91 83.9946 1019.44 83.7457C1029.25 82.0035 1037.18 74.1459 1039.03 64.3683" fill="#1E22BE"/>
<path d="M1060.37 91.5677L1057.59 83.1412C1059.94 78.5191 1060.69 73.328 1059.76 68.137C1058.06 58.6794 1050.59 51.1063 1041.17 49.293C1041.66 50.6085 1042.09 51.9596 1042.41 53.3462C1049.45 55.444 1054.89 61.4172 1056.21 68.777C1056.99 73.1858 1056.35 77.5946 1054.36 81.5057C1053.9 82.3945 1053.82 83.3901 1054.14 84.3145L1056.95 92.7054C1056.95 92.7054 1056.95 92.7054 1056.95 92.7766C1056.95 92.7766 1056.95 92.7766 1056.88 92.7766L1048.53 90.0033C1048.17 89.8611 1047.78 89.8255 1047.39 89.8255C1046.82 89.8255 1046.22 89.9677 1045.68 90.2522C1041.74 92.2788 1037.33 92.9188 1032.92 92.1366C1028.9 91.4255 1025.31 89.47 1022.5 86.7322C1021.72 86.9456 1020.94 87.1233 1020.12 87.2656C1019.51 87.3722 1018.91 87.4433 1018.3 87.5144C1021.79 91.7099 1026.66 94.6965 1032.24 95.692C1037.47 96.6165 1042.66 95.8698 1047.35 93.4521L1055.71 96.2254C1056.1 96.3676 1056.49 96.4031 1056.88 96.4031C1057.84 96.4031 1058.77 96.012 1059.48 95.3009C1060.47 94.3054 1060.83 92.8477 1060.37 91.5321" fill="#1E22BE"/>
</svg>
