<svg width="33" height="32" viewBox="0 0 33 32" fill="none" xmlns="http://www.w3.org/2000/svg">
<path d="M24.9513 16.9802C24.9513 21.3598 21.4007 24.9156 17.0159 24.9156H16.4788C12.0992 24.9156 8.54335 21.365 8.54335 16.9802V16.7977C8.54335 16.3597 8.89789 16 9.34107 16H24.1484C24.5916 16 24.9461 16.3545 24.9461 16.7977V16.9802H24.9513ZM13.241 9.62863C14.0127 9.62863 14.6331 10.2543 14.6331 11.0207C14.6331 11.7872 14.0075 12.4128 13.241 12.4128C12.4746 12.4128 11.8489 11.7872 11.8489 11.0207C11.8489 10.2543 12.4746 9.62863 13.241 9.62863ZM20.2537 9.62863C21.0253 9.62863 21.6458 10.2543 21.6458 11.0207C21.6458 11.7872 21.0201 12.4128 20.2537 12.4128C19.4872 12.4128 18.8616 11.7872 18.8616 11.0207C18.8616 10.2543 19.4872 9.62863 20.2537 9.62863ZM16.75 3.19995C9.67997 3.19995 3.94995 8.92997 3.94995 16C3.94995 23.0699 9.67997 28.7999 16.75 28.7999C23.8199 28.7999 29.5499 23.0699 29.5499 16C29.5499 8.92997 23.8147 3.19995 16.75 3.19995Z" fill="#0057B8"/>
</svg>
