<svg width="48" height="39" viewBox="0 0 48 39" fill="none" xmlns="http://www.w3.org/2000/svg">
<g clip-path="url(#clip0_1643_119528)">
<path d="M5.38604 30.6678V22.7752L3.02656 21.3867V30.6191C1.95407 31.0575 1.19141 32.1537 1.19141 33.4204C1.19141 35.0769 2.52606 36.4411 4.14672 36.4411C5.76737 36.4411 7.10203 35.0769 7.10203 33.4204C7.10203 32.2025 6.41087 31.1793 5.40988 30.6922" fill="#36BCEE"/>
<path d="M46.8321 12.6671L26.3594 0.633354C25.6206 0.194878 24.8102 0 23.9999 0C23.1896 0 22.3792 0.219238 21.6404 0.633354L1.16773 12.6671C-0.38143 13.5928 -0.38143 15.8826 1.16773 16.7839L22.8321 29.4997C23.1896 29.7189 23.5947 29.8164 23.9999 29.8164C24.4051 29.8164 24.8102 29.7189 25.1677 29.4997L46.8321 16.7839C48.3812 15.8582 48.3812 13.5684 46.8321 12.6671ZM23.9999 32.8613C23.0704 32.8613 22.1648 32.6177 21.3544 32.1549L8.29384 24.4816V30.4984C8.29384 30.4984 8.41301 30.5715 8.46068 30.6202L21.6166 38.3423C23.0704 39.1949 24.8579 39.1949 26.3356 38.3423L39.4915 30.6202C40.9691 29.7676 41.8748 28.1599 41.8748 26.4304V23.1905L26.6216 32.1549C25.8351 32.6177 24.9056 32.8613 23.9999 32.8613Z" fill="#36BCEE"/>
</g>
<defs>
<clipPath id="clip0_1643_119528">
<rect width="48" height="39" fill="white"/>
</clipPath>
</defs>
</svg>
