<svg width="1440" height="400" viewBox="0 0 1440 400" fill="none" xmlns="http://www.w3.org/2000/svg">
<path d="M220 726C186.813 726 154.592 719.489 124.229 706.646C94.9297 694.253 68.6257 676.524 46.0524 653.948C23.4762 631.374 5.74738 605.07 -6.64567 575.771C-19.4894 545.408 -26 513.187 -26 480C-26 446.813 -19.4894 414.592 -6.64567 384.229C5.74738 354.93 23.4762 328.626 46.0524 306.052C68.6286 283.476 94.9297 265.747 124.229 253.354C154.592 240.511 186.813 234 220 234C253.187 234 285.408 240.511 315.771 253.354C345.07 265.747 371.374 283.476 393.948 306.052C416.524 328.629 434.253 354.93 446.646 384.229C459.489 414.592 466 446.813 466 480C466 513.187 459.489 545.408 446.646 575.771C434.253 605.07 416.524 631.374 393.948 653.948C371.374 676.524 345.07 694.253 315.771 706.646C285.408 719.489 253.187 726 220 726ZM220 341.589C183.03 341.589 148.27 355.985 122.129 382.129C95.9881 408.27 81.5887 443.03 81.5887 480C81.5887 516.97 95.9852 551.73 122.129 577.871C148.27 604.015 183.03 618.411 220 618.411C256.97 618.411 291.73 604.015 317.871 577.871C344.015 551.73 358.411 516.97 358.411 480C358.411 443.03 344.015 408.27 317.871 382.129C291.73 355.988 256.97 341.589 220 341.589Z" fill="#3538C5"/>
<path d="M1206.58 93.5463L1227.97 74.7888C1230.93 72.2261 1230.33 64.3871 1228.24 61.3075C1227.31 59.9293 1226.38 59.6062 1225.87 59.3693L1199.05 48.0631C1198.48 47.8263 1197.42 48.257 1196.78 48.7308C1195.48 49.6999 1175.41 64.5594 1174.85 64.9901C1174.54 65.2055 1174.31 65.5285 1174.17 65.8946C1174.04 66.1961 1173.98 66.5407 1174 66.8637C1174.04 67.5959 1174.45 68.1989 1175.05 68.4573L1203.11 80.6465C1203.68 80.9049 1204.37 80.7757 1204.88 80.3234L1225.22 63.6549C1225.58 64.1072 1226.18 65.4854 1226.34 67.6605C1226.53 69.9433 1225.62 71.1924 1225.37 71.4508C1225.37 71.4508 1206.31 87.6455 1205.73 88.1409C1205.15 88.6362 1205.11 88.6362 1204.55 88.3993C1203.99 88.1624 1177.97 76.8347 1177.97 76.8347C1176.65 76.2532 1175.53 77.4377 1175.12 78.4499C1174.7 79.4836 1175.24 80.9911 1176.13 81.4002L1204.8 93.8478C1205.38 94.1062 1206.06 93.977 1206.6 93.5248" fill="#3538C5"/>
<path d="M1823 322.574L1191 322.574" stroke="#36BCEE" stroke-width="2"/>
<circle cx="1187" cy="322.074" r="3" stroke="#36BCEE" stroke-width="2"/>
<path d="M1589.79 296C1515.79 296 1360.59 296 1331.79 296C1302.99 296 1291.97 281.5 1318.47 255C1339.26 234.197 1465.12 98.6667 1531.79 32" stroke="#36BCEE" stroke-width="2"/>
<path d="M-163.385 102.152C-89.3847 102.152 65.8151 102.152 94.6151 102.152C123.416 102.152 134.432 116.652 107.941 143.152C87.1445 163.956 -38.7182 299.486 -105.385 366.152" stroke="#36BCEE" stroke-width="2"/>
<path d="M-135.375 65.9375H286.061" stroke="#36BCEE" stroke-width="2"/>
<circle cx="289.243" cy="66.2812" r="3" transform="rotate(-45 289.243 66.2812)" stroke="#36BCEE" stroke-width="2"/>
</svg>
