<svg width="1440" height="400" viewBox="0 0 1440 400" fill="none" xmlns="http://www.w3.org/2000/svg">
<path d="M1259 465C1295.96 465 1331.85 457.695 1365.67 443.285C1398.31 429.381 1427.6 409.49 1452.75 384.161C1477.89 358.835 1497.64 329.323 1511.44 296.451C1525.75 262.385 1533 226.234 1533 189C1533 151.766 1525.75 115.615 1511.44 81.5492C1497.64 48.6772 1477.89 19.1654 1452.75 -6.16071C1427.6 -31.4901 1398.31 -51.381 1365.67 -65.2854C1331.85 -79.6955 1295.96 -87 1259 -87C1222.04 -87 1186.15 -79.6955 1152.33 -65.2854C1119.69 -51.381 1090.4 -31.4901 1065.25 -6.16071C1040.11 19.1687 1020.36 48.6772 1006.56 81.5492C992.252 115.615 985 151.766 985 189C985 226.234 992.252 262.385 1006.56 296.451C1020.36 329.323 1040.11 358.835 1065.25 384.161C1090.4 409.49 1119.69 429.381 1152.33 443.285C1186.15 457.695 1222.04 465 1259 465ZM1259 33.7092C1300.18 33.7092 1338.89 49.8614 1368.01 79.1938C1397.13 108.523 1413.17 147.522 1413.17 189C1413.17 230.478 1397.13 269.477 1368.01 298.806C1338.89 328.139 1300.18 344.291 1259 344.291C1217.82 344.291 1179.11 328.139 1149.99 298.806C1120.87 269.477 1104.83 230.478 1104.83 189C1104.83 147.522 1120.87 108.523 1149.99 79.1938C1179.11 49.8647 1217.82 33.7092 1259 33.7092Z" fill="#3538C5"/>
<path d="M-238 175C-164 175 191.409 175 220.209 175C249.009 175 260.026 189.5 233.535 216C212.738 236.803 23.3754 435.833 -43.2913 502.5" stroke="#36BCEE" stroke-width="2"/>
<path d="M-78 144.25L554 144.25" stroke="#36BCEE" stroke-width="2"/>
<circle cx="4" cy="4" r="3" transform="matrix(-1 0 0 1 562 139.75)" stroke="#36BCEE" stroke-width="2"/>
</svg>
