<svg width="1237" height="562" viewBox="0 0 1237 562" fill="none" xmlns="http://www.w3.org/2000/svg">
<path d="M895 393.625C969.04 319.501 1108.77 179.484 1123.85 164.39C1142.7 145.522 1138.96 132.382 1123.85 128.001C1108 128.001 895 128.001 895 128.001" stroke="#36BCEE" stroke-width="2"/>
<path d="M1236 86L933 389" stroke="#E94A67" stroke-width="2"/>
<path d="M527.977 1C417.977 111 47.8772 481.1 25.477 503.5C-28.5243 557.5 25.477 557.5 25.477 557.5H302.002" stroke="#36BCEE" stroke-width="2"/>
<path d="M302.475 557.5C302.475 559.157 303.818 560.5 305.475 560.5C307.131 560.5 308.475 559.157 308.475 557.5C308.475 555.843 307.131 554.5 305.475 554.5C303.818 554.5 302.475 555.843 302.475 557.5Z" stroke="#36BCEE" stroke-width="2"/>
</svg>
