<svg width="24" height="24" viewBox="0 0 24 24" fill="none" xmlns="http://www.w3.org/2000/svg">
<path d="M18.1514 12.7351C18.1514 16.0198 15.4885 18.6867 12.1998 18.6867H11.7971C8.51233 18.6867 5.84544 16.0237 5.84544 12.7351V12.5982C5.84544 12.2697 6.11135 11.9999 6.44373 11.9999H17.5492C17.8816 11.9999 18.1475 12.2658 18.1475 12.5982V12.7351H18.1514ZM9.3687 7.22141C9.94744 7.22141 10.4128 7.69066 10.4128 8.26548C10.4128 8.84031 9.94353 9.30956 9.3687 9.30956C8.79387 9.30956 8.32463 8.84031 8.32463 8.26548C8.32463 7.69066 8.79387 7.22141 9.3687 7.22141ZM14.6282 7.22141C15.2069 7.22141 15.6722 7.69066 15.6722 8.26548C15.6722 8.84031 15.203 9.30956 14.6282 9.30956C14.0533 9.30956 13.5841 8.84031 13.5841 8.26548C13.5841 7.69066 14.0533 7.22141 14.6282 7.22141ZM12.0004 2.3999C6.69791 2.3999 2.40039 6.69742 2.40039 11.9999C2.40039 17.3024 6.69791 21.5999 12.0004 21.5999C17.3029 21.5999 21.6004 17.3024 21.6004 11.9999C21.6004 6.69742 17.299 2.3999 12.0004 2.3999Z" fill="white"/>
</svg>
