<svg width="375" height="1651" viewBox="0 0 375 1651" fill="none" xmlns="http://www.w3.org/2000/svg">
<path d="M60.2074 1563.69C72.2348 1563.69 81.985 1553.93 81.985 1541.9C81.985 1529.87 72.2348 1520.11 60.2074 1520.11C48.1799 1520.11 38.4297 1529.87 38.4297 1541.9C38.4297 1553.93 48.1799 1563.69 60.2074 1563.69Z" fill="#F15A22"/>
<mask id="mask0_572_19645" style="mask-type:luminance" maskUnits="userSpaceOnUse" x="38" y="1520" width="44" height="44">
<path d="M60.2074 1563.69C72.2348 1563.69 81.985 1553.93 81.985 1541.9C81.985 1529.87 72.2348 1520.11 60.2074 1520.11C48.1799 1520.11 38.4297 1529.87 38.4297 1541.9C38.4297 1553.93 48.1799 1563.69 60.2074 1563.69Z" fill="white"/>
</mask>
<g mask="url(#mask0_572_19645)">
<path d="M72.7038 1526.78C71.2631 1526.5 69.739 1526.43 68.4044 1526.24C67.8508 1526.17 67.267 1526.11 66.7589 1526.34C64.9543 1527.16 66.5467 1530.02 67.8281 1530.53C67.9646 1530.58 68.1314 1530.64 68.2907 1530.71C68.7532 1530.87 69.1096 1531.24 69.2688 1531.7C69.4508 1532.24 69.5494 1532.97 69.1096 1533.66C68.1162 1535.2 65.8718 1536.12 65.6594 1538.11C65.5988 1538.68 65.6746 1539.25 65.7125 1539.82C65.7808 1540.72 65.7808 1541.64 66.0386 1542.51C66.5087 1544.11 67.9115 1544.61 69.1854 1545.46C69.7921 1545.86 70.6565 1545.81 71.1797 1545.29C71.7712 1544.7 71.809 1543.73 71.9607 1542.96C72.1806 1541.85 72.1655 1539.91 72.9768 1539.07C74.9787 1536.99 76.6089 1541.19 77.0791 1542.5C78.1103 1545.37 81.6742 1545.19 83.714 1543.45C84.3358 1542.92 84.6012 1542.24 84.4874 1541.43C84.3964 1540.8 84.1386 1540.2 84.0097 1539.57C83.6761 1537.96 83.5927 1536.65 81.8865 1535.92C80.9235 1535.51 79.8468 1535.39 78.9065 1534.92C76.427 1533.72 78.0724 1530.84 76.8744 1528.93C76.571 1528.44 76.1161 1528.07 75.6156 1527.78C74.7512 1527.28 73.7503 1526.99 72.7038 1526.79V1526.78Z" fill="#CB4617"/>
<path d="M66.7656 1562.03C64.8548 1562.27 62.9136 1562.31 60.9876 1562.15C57.8483 1561.89 54.4436 1560.86 52.7982 1558.18C50.9101 1555.07 62.2008 1554.05 63.7098 1553.78C63.9676 1553.73 64.2254 1553.68 64.4453 1553.53C64.9913 1553.17 64.9988 1552.36 64.7714 1551.74C64.2785 1550.41 62.9591 1549.49 61.5639 1549.19C58.9554 1548.62 56.4607 1549.93 54.0342 1550.66C49.8485 1551.93 46.4514 1549.18 44.116 1545.98C42.7814 1544.15 39.9151 1540.55 40.2487 1538.16C40.7644 1534.48 47.5509 1541.27 48.0969 1542.27C48.7187 1543.4 49.1357 1544.66 49.9926 1545.63C51.0693 1546.85 52.7224 1547.43 54.3451 1547.56C56.1043 1547.69 60.3961 1547.71 61.2454 1545.67C61.9733 1543.94 60.4492 1540.82 59.1525 1539.69C58.4094 1539.05 57.4919 1538.97 56.5593 1538.91C55.9981 1538.88 55.437 1538.81 54.891 1538.71C54.4816 1538.63 53.6702 1538.57 53.4048 1538.2C52.8968 1537.49 54.1934 1535.89 54.5574 1535.33C54.9744 1534.68 55.4522 1533.91 55.3005 1533.1C55.1944 1532.53 54.6408 1532.34 54.1707 1532.68C53.3745 1533.25 53.2456 1534.58 52.184 1534.83C51.7821 1534.92 51.3271 1534.81 50.948 1534.67C50.3035 1534.42 49.2191 1533.79 49.4087 1532.94C49.5224 1532.42 50.1215 1532.19 50.2883 1531.71C50.4855 1531.11 49.8864 1530.74 49.4694 1530.44C49.0751 1530.17 48.6959 1529.86 48.3395 1529.54C48.112 1529.34 47.8012 1529.2 47.6268 1528.93C47.4296 1528.63 47.7178 1528.35 47.5964 1528.03C47.5434 1527.91 47.4448 1527.79 47.4069 1527.66C47.3689 1527.5 47.4069 1527.34 47.4979 1527.2C47.786 1526.75 48.3244 1526.57 48.6884 1526.2C49.2419 1525.64 49.7727 1525.06 50.2656 1524.45C50.6978 1523.9 52.0551 1522.31 51.2286 1521.61C51.2286 1521.61 50.5916 1521.06 49.8409 1520.42C44.1311 1523.65 40.0061 1528.85 37.2611 1534.56C35.5399 1538.15 35.5929 1542.69 36.5332 1547.08C37.3066 1550.7 38.626 1553.62 41.1208 1556.07C42.8724 1557.79 44.1842 1560.38 46.1557 1561.79C51.5471 1565.66 58.4853 1567.33 65.4841 1565.83C68.0244 1565.28 70.2385 1564.13 72.4072 1562.95C72.2025 1562.48 71.9067 1562.06 71.3911 1561.76C70.0489 1561 68.1608 1561.85 66.7505 1562.03H66.7656Z" fill="#CB4617"/>
</g>
<path d="M361.492 897.016C405.399 897.016 440.992 861.198 440.992 817.016C440.992 772.833 405.399 737.016 361.492 737.016C317.586 737.016 281.992 772.833 281.992 817.016C281.992 861.198 317.586 897.016 361.492 897.016Z" fill="#F15A22"/>
<path d="M336.492 779.016C343.948 779.016 349.992 772.748 349.992 765.016C349.992 757.284 343.948 751.016 336.492 751.016C329.036 751.016 322.992 757.284 322.992 765.016C322.992 772.748 329.036 779.016 336.492 779.016Z" fill="#CB4617"/>
<path d="M367.492 875.016C374.948 875.016 380.992 868.971 380.992 861.516C380.992 854.06 374.948 848.016 367.492 848.016C360.036 848.016 353.992 854.06 353.992 861.516C353.992 868.971 360.036 875.016 367.492 875.016Z" fill="#CB4617"/>
<path d="M315.992 841.016C319.858 841.016 322.992 837.882 322.992 834.016C322.992 830.15 319.858 827.016 315.992 827.016C312.126 827.016 308.992 830.15 308.992 834.016C308.992 837.882 312.126 841.016 315.992 841.016Z" fill="#CB4617"/>
<path d="M358.992 806.016C362.858 806.016 365.992 803.105 365.992 799.516C365.992 795.926 362.858 793.016 358.992 793.016C355.126 793.016 351.992 795.926 351.992 799.516C351.992 803.105 355.126 806.016 358.992 806.016Z" fill="#CB4617"/>
<path d="M378.492 778.016C382.082 778.016 384.992 774.882 384.992 771.016C384.992 767.15 382.082 764.016 378.492 764.016C374.902 764.016 371.992 767.15 371.992 771.016C371.992 774.882 374.902 778.016 378.492 778.016Z" fill="#CB4617"/>
<path d="M309.492 802.016C311.425 802.016 312.992 800.672 312.992 799.016C312.992 797.359 311.425 796.016 309.492 796.016C307.559 796.016 305.992 797.359 305.992 799.016C305.992 800.672 307.559 802.016 309.492 802.016Z" fill="#CB4617"/>
<path d="M406.518 918.539C461.259 901.155 492.128 844.484 475.464 791.96C458.8 739.435 400.915 710.948 346.173 728.332C291.431 745.716 260.563 802.388 277.227 854.912C293.891 907.436 351.776 935.923 406.518 918.539Z" stroke="white" stroke-width="2" stroke-miterlimit="10"/>
<path d="M159.069 7C114.622 7 -30.6589 7 -47.957 7" stroke="#F15A22" stroke-width="2"/>
<path d="M162.377 12.16C165.459 12.16 167.957 9.66175 167.957 6.58C167.957 3.49825 165.459 1 162.377 1C159.295 1 156.797 3.49825 156.797 6.58C156.797 9.66175 159.295 12.16 162.377 12.16Z" stroke="#F15A22" stroke-width="2" stroke-miterlimit="10"/>
<path d="M177.222 1412.7C181.28 1407.76 184.18 1405 184.18 1405C184.18 1405 187.08 1407.76 191.139 1412.7C207.294 1432.36 215.679 1455.43 215.679 1478.92V1581.27C215.679 1584.85 212.779 1587.75 209.202 1587.75H184.187H159.172C155.595 1587.75 152.695 1584.85 152.695 1581.27V1478.92C152.695 1455.43 161.074 1432.36 177.235 1412.7H177.222Z" fill="#2DBEE6"/>
<path d="M184.178 1495.88C194.032 1495.88 202.02 1487.89 202.02 1478.03C202.02 1468.17 194.032 1460.18 184.178 1460.18C174.324 1460.18 166.336 1468.17 166.336 1478.03C166.336 1487.89 174.324 1495.88 184.178 1495.88Z" fill="white"/>
<path d="M130.267 1651.7H99.7062H73.5323H58.5633H32.6974H0C0 1651.7 13.3415 1649.65 18.512 1646.51C16.2482 1645.6 14.6475 1643.4 14.6475 1640.81C14.6475 1637.42 17.3935 1634.67 20.7825 1634.67C22.1688 1634.67 23.428 1635.15 24.4527 1635.92C24.4326 1635.57 24.3991 1635.23 24.3991 1634.88C24.3991 1623.15 33.9029 1613.64 45.6236 1613.64C49.9837 1613.64 54.0357 1614.96 57.4113 1617.22C60.6931 1604.14 72.5276 1594.45 86.6259 1594.45C102.633 1594.45 115.72 1606.94 116.684 1622.72C119.209 1617.78 124.333 1614.39 130.26 1614.39C137.701 1614.39 143.89 1619.73 145.236 1626.78C146.268 1624.85 148.283 1623.51 150.628 1623.51C152.664 1623.51 154.459 1624.52 155.577 1626.05C160.506 1617.28 164.257 1606.07 164.512 1592.05H203.833C203.833 1592.05 205.313 1614.51 228.105 1639.23L230.081 1639.08C230.717 1636.31 233.181 1634.25 236.142 1634.25C237.213 1634.25 238.211 1634.54 239.095 1635.03C239.082 1634.76 239.055 1634.51 239.055 1634.25C239.055 1623.61 247.675 1614.99 258.304 1614.99C268.002 1614.99 275.999 1622.17 277.338 1631.51C279.515 1630.03 282.147 1629.18 284.974 1629.18C292.515 1629.18 298.623 1635.29 298.623 1642.83C298.623 1643.23 298.596 1643.62 298.563 1644.02C299.058 1643.6 299.688 1643.35 300.391 1643.35C301.979 1643.35 303.264 1644.63 303.264 1646.22C303.264 1647.81 301.979 1649.1 300.391 1649.1C300.391 1649.1 323.283 1651.48 337 1651.71H315.702H295.335H274.626H266.415H250.18H223.798H198.642H177.056H147.908H136.663H130.274L130.267 1651.7Z" fill="white"/>
<path d="M177.222 1419.01C181.28 1414.38 184.18 1411.79 184.18 1411.79C184.18 1411.79 187.08 1414.38 191.139 1419.01C207.294 1437.46 215.679 1459.1 215.679 1481.14V1577.17C215.679 1580.52 212.779 1583.25 209.202 1583.25H184.187H159.172C155.595 1583.25 152.695 1580.53 152.695 1577.17V1481.14C152.695 1459.1 161.074 1437.46 177.235 1419.01H177.222Z" stroke="white" stroke-width="2" stroke-miterlimit="10"/>
<path d="M206.107 1592.05H162.252C161.133 1592.05 160.223 1591.14 160.223 1590.02V1587.75H208.137V1590.02C208.137 1591.14 207.226 1592.05 206.107 1592.05Z" fill="#E0004D"/>
<path d="M163.205 1536.19L137.339 1546.88C132.644 1548.83 129.416 1553.22 128.96 1558.28L125.906 1592.05L133.722 1590.71L157.137 1562.73C157.941 1561.77 159.133 1561.21 160.385 1561.21H163.212V1536.18L163.205 1536.19Z" fill="#E0004D"/>
<path d="M205.143 1536.19L231.009 1546.88C235.704 1548.83 238.933 1553.22 239.388 1558.28L242.442 1592.05L234.626 1590.71L211.211 1562.73C210.408 1561.77 209.215 1561.21 207.963 1561.21H205.137V1536.18L205.143 1536.19Z" fill="#E0004D"/>
<path d="M164.279 1538.32L138.413 1549.02C133.718 1550.96 130.49 1555.35 130.035 1560.41L126.98 1594.19L134.797 1592.85L158.211 1564.86C159.015 1563.9 160.207 1563.34 161.459 1563.34H164.286V1538.32L164.279 1538.32Z" stroke="#001E60" stroke-width="2" stroke-miterlimit="10"/>
<path d="M206.218 1538.32L232.084 1549.02C236.779 1550.96 240.007 1555.35 240.462 1560.41L243.516 1594.19L235.7 1592.85L212.286 1564.86C211.482 1563.9 210.29 1563.34 209.037 1563.34H206.211V1538.32L206.218 1538.32Z" stroke="#001E60" stroke-width="2" stroke-miterlimit="10"/>
<path d="M191.19 1497.56C200.363 1493.96 204.777 1483.33 201.049 1473.82C197.32 1464.31 186.861 1459.52 177.688 1463.13C168.515 1466.73 164.101 1477.35 167.829 1486.86C171.557 1496.37 182.016 1501.16 191.19 1497.56Z" stroke="#001E60" stroke-width="2" stroke-miterlimit="10"/>
</svg>
