<svg width="1440" height="855" viewBox="0 0 1440 855" fill="none" xmlns="http://www.w3.org/2000/svg">
<path d="M1370.15 13.8993C1430.24 -20.6105 1504.7 17.5554 1564.05 37.7059C1602.28 50.6837 1642.9 60.0054 1683.21 52.1629C1721.56 44.7111 1757.85 35.3755 1798.89 38.5711C1939.48 49.5255 1975.64 221.656 1970.54 267.022C1960.41 357.1 1874.43 330.181 1900.34 511.187C1930.02 718.497 1653.27 715.622 1550.98 672.586C1502.18 652.059 1443.63 746.908 1371.8 710.654C1352.94 701.123 1343.46 679.159 1339.76 658.324C1329.07 598.208 1388.69 577.946 1400.72 494.413C1411 422.938 1377 379.762 1320.82 321.125C1253 250.347 1262.27 168.224 1309.39 82.2491C1322.64 58.0518 1339.34 35.1104 1361.85 19.2021C1364.59 17.2763 1367.36 15.5041 1370.15 13.8993Z" fill="#1E22BE"/>
<path d="M1273.76 508.615C1285.79 508.615 1295.54 498.86 1295.54 486.827C1295.54 474.794 1285.79 465.039 1273.76 465.039C1261.73 465.039 1251.98 474.794 1251.98 486.827C1251.98 498.86 1261.73 508.615 1273.76 508.615Z" fill="#F15A22"/>
<mask id="mask0_561_19674" style="mask-type:luminance" maskUnits="userSpaceOnUse" x="1251" y="465" width="45" height="44">
<path d="M1273.76 508.615C1285.79 508.615 1295.54 498.86 1295.54 486.827C1295.54 474.794 1285.79 465.039 1273.76 465.039C1261.73 465.039 1251.98 474.794 1251.98 486.827C1251.98 498.86 1261.73 508.615 1273.76 508.615Z" fill="white"/>
</mask>
<g mask="url(#mask0_561_19674)">
<path d="M1286.25 471.701C1284.81 471.428 1283.29 471.352 1281.96 471.17C1281.4 471.094 1280.82 471.034 1280.31 471.261C1278.51 472.088 1280.1 474.948 1281.38 475.456C1281.52 475.51 1281.68 475.57 1281.84 475.631C1282.3 475.798 1282.66 476.162 1282.82 476.625C1283 477.163 1283.1 477.899 1282.66 478.582C1281.67 480.122 1279.42 481.048 1279.21 483.035C1279.15 483.604 1279.23 484.173 1279.26 484.742C1279.33 485.645 1279.33 486.563 1279.59 487.435C1280.06 489.036 1281.46 489.537 1282.74 490.386C1283.34 490.788 1284.21 490.735 1284.73 490.22C1285.32 489.628 1285.36 488.657 1285.51 487.883C1285.73 486.775 1285.72 484.841 1286.53 483.999C1288.53 481.912 1290.16 486.115 1290.63 487.428C1291.66 490.295 1295.22 490.113 1297.26 488.376C1297.89 487.845 1298.15 487.17 1298.04 486.358C1297.95 485.721 1297.69 485.121 1297.56 484.492C1297.23 482.883 1297.14 481.579 1295.44 480.85C1294.47 480.441 1293.4 480.312 1292.46 479.849C1289.98 478.65 1291.62 475.767 1290.43 473.856C1290.12 473.37 1289.67 472.991 1289.17 472.703C1288.3 472.202 1287.3 471.914 1286.25 471.716V471.701Z" fill="#CB4617"/>
<path d="M1280.32 506.955C1278.41 507.198 1276.46 507.236 1274.54 507.076C1271.4 506.811 1267.99 505.787 1266.35 503.101C1264.46 499.998 1275.75 498.974 1277.26 498.701C1277.52 498.656 1277.78 498.602 1278 498.458C1278.54 498.094 1278.55 497.282 1278.32 496.668C1277.83 495.333 1276.51 494.415 1275.11 494.111C1272.51 493.55 1270.01 494.855 1267.58 495.591C1263.4 496.858 1260 494.104 1257.67 490.902C1256.33 489.074 1253.47 485.478 1253.8 483.088C1254.32 479.409 1261.1 486.199 1261.65 487.193C1262.27 488.323 1262.69 489.59 1263.54 490.553C1264.62 491.775 1266.27 492.359 1267.9 492.488C1269.66 492.617 1273.95 492.632 1274.8 490.599C1275.52 488.862 1274 485.744 1272.7 484.621C1271.96 483.976 1271.04 483.892 1270.11 483.839C1269.55 483.809 1268.99 483.741 1268.44 483.635C1268.03 483.551 1267.22 483.498 1266.96 483.126C1266.45 482.413 1267.74 480.812 1268.11 480.251C1268.53 479.606 1269 478.832 1268.85 478.028C1268.75 477.452 1268.19 477.27 1267.72 477.603C1266.93 478.172 1266.8 479.508 1265.73 479.758C1265.33 479.849 1264.88 479.735 1264.5 479.591C1263.85 479.348 1262.77 478.711 1262.96 477.869C1263.07 477.345 1263.67 477.118 1263.84 476.632C1264.04 476.033 1263.44 475.661 1263.02 475.365C1262.63 475.092 1262.25 474.789 1261.89 474.47C1261.66 474.265 1261.35 474.121 1261.18 473.856C1260.98 473.552 1261.27 473.272 1261.15 472.96C1261.09 472.832 1261 472.718 1260.96 472.581C1260.92 472.429 1260.96 472.263 1261.05 472.126C1261.34 471.678 1261.88 471.496 1262.24 471.125C1262.79 470.563 1263.32 469.987 1263.82 469.372C1264.25 468.826 1265.61 467.24 1264.78 466.535C1264.78 466.535 1264.14 465.989 1263.39 465.344C1257.68 468.576 1253.56 473.772 1250.81 479.485C1249.09 483.073 1249.14 487.617 1250.08 492.01C1250.86 495.621 1252.18 498.542 1254.67 500.992C1256.42 502.714 1257.73 505.301 1259.71 506.72C1265.1 510.589 1272.04 512.258 1279.03 510.756C1281.58 510.21 1283.79 509.056 1285.96 507.873C1285.75 507.403 1285.46 506.985 1284.94 506.69C1283.6 505.923 1281.71 506.773 1280.3 506.955H1280.32Z" fill="#CB4617"/>
</g>
<path d="M1458.13 321.38C1514.08 321.38 1559.44 276.002 1559.44 220.026C1559.44 164.05 1514.08 118.672 1458.13 118.672C1402.18 118.672 1356.83 164.05 1356.83 220.026C1356.83 276.002 1402.18 321.38 1458.13 321.38Z" fill="#F15A22"/>
<path d="M1426.26 171.558C1435.85 171.558 1443.62 163.78 1443.62 154.185C1443.62 144.591 1435.85 136.812 1426.26 136.812C1416.66 136.812 1408.89 144.591 1408.89 154.185C1408.89 163.78 1416.66 171.558 1426.26 171.558Z" fill="#CB4617"/>
<path d="M1400.21 250.463C1405 250.463 1408.89 246.574 1408.89 241.776C1408.89 236.979 1405 233.09 1400.21 233.09C1395.41 233.09 1391.53 236.979 1391.53 241.776C1391.53 246.574 1395.41 250.463 1400.21 250.463Z" fill="#CB4617"/>
<path d="M1392.66 201.659C1395.06 201.659 1397 199.713 1397 197.312C1397 194.911 1395.06 192.965 1392.66 192.965C1390.26 192.965 1388.31 194.911 1388.31 197.312C1388.31 199.713 1390.26 201.659 1392.66 201.659Z" fill="#CB4617"/>
<path d="M1515.14 348.878C1584.52 326.846 1623.64 255.022 1602.52 188.454C1581.4 121.887 1508.04 85.7832 1438.66 107.815C1369.28 129.847 1330.16 201.671 1351.28 268.238C1372.4 334.806 1445.76 370.909 1515.14 348.878Z" stroke="white" stroke-width="2" stroke-miterlimit="10"/>
<path d="M1317.24 584.408C1321.84 578.817 1325.12 575.691 1325.12 575.691C1325.12 575.691 1328.41 578.817 1333 584.408C1351.29 606.667 1360.78 632.786 1360.78 659.384V775.259C1360.78 779.31 1357.5 782.595 1353.45 782.595H1325.13H1296.81C1292.76 782.595 1289.48 779.31 1289.48 775.259V659.384C1289.48 632.786 1298.96 606.667 1317.26 584.408H1317.24Z" fill="#2DBEE6"/>
<path d="M1325.12 678.58C1336.28 678.58 1345.32 669.532 1345.32 658.37C1345.32 647.209 1336.28 638.16 1325.12 638.16C1313.97 638.16 1304.92 647.209 1304.92 658.37C1304.92 669.532 1313.97 678.58 1325.12 678.58Z" fill="white"/>
<path d="M1264.09 855.002H1229.49H1199.85H1182.91H1153.62H1116.6C1116.6 855.002 1131.71 852.681 1137.56 849.123C1135 848.091 1133.19 845.603 1133.19 842.667C1133.19 838.828 1136.29 835.718 1140.13 835.718C1141.7 835.718 1143.13 836.257 1144.29 837.129C1144.26 836.734 1144.23 836.348 1144.23 835.953C1144.23 822.677 1154.99 811.912 1168.26 811.912C1173.19 811.912 1177.78 813.406 1181.6 815.963C1185.32 801.147 1198.72 790.177 1214.68 790.177C1232.8 790.177 1247.62 804.325 1248.71 822.184C1251.57 816.593 1257.37 812.762 1264.08 812.762C1272.5 812.762 1279.51 818.8 1281.03 826.781C1282.2 824.596 1284.48 823.087 1287.14 823.087C1289.44 823.087 1291.48 824.225 1292.74 825.954C1298.32 816.031 1302.57 803.339 1302.86 787.461H1347.38C1347.38 787.461 1349.05 812.898 1374.85 840.877L1377.09 840.71C1377.81 837.577 1380.6 835.24 1383.95 835.24C1385.17 835.24 1386.3 835.574 1387.3 836.12C1387.28 835.824 1387.25 835.536 1387.25 835.24C1387.25 823.2 1397.01 813.437 1409.05 813.437C1420.03 813.437 1429.08 821.569 1430.6 832.137C1433.06 830.468 1436.04 829.497 1439.24 829.497C1447.78 829.497 1454.69 836.416 1454.69 844.958C1454.69 845.413 1454.66 845.853 1454.63 846.301C1455.19 845.831 1455.9 845.542 1456.7 845.542C1458.49 845.542 1459.95 846.999 1459.95 848.797C1459.95 850.595 1458.49 852.051 1456.7 852.051C1456.7 852.051 1482.61 854.745 1498.14 855.01H1474.03H1450.97H1427.52H1418.23H1399.85H1369.98H1341.5H1317.06H1284.06H1271.33H1264.09L1264.09 855.002Z" fill="white"/>
<path d="M1317.24 591.549C1321.84 586.307 1325.12 583.371 1325.12 583.371C1325.12 583.371 1328.41 586.307 1333 591.549C1351.29 612.435 1360.78 636.938 1360.78 661.898V770.61C1360.78 774.411 1357.5 777.499 1353.45 777.499H1325.13H1296.81C1292.76 777.499 1289.48 774.419 1289.48 770.61V661.898C1289.48 636.938 1298.96 612.435 1317.26 591.549H1317.24Z" stroke="white" stroke-width="2" stroke-miterlimit="10"/>
<path d="M1349.95 787.469H1300.3C1299.03 787.469 1298 786.437 1298 785.17V782.598H1352.25V785.17C1352.25 786.437 1351.21 787.469 1349.95 787.469Z" fill="#E0004D"/>
<path d="M1301.38 724.219L1272.1 736.326C1266.78 738.526 1263.13 743.496 1262.61 749.223L1259.15 787.466L1268 785.949L1294.51 754.268C1295.42 753.176 1296.77 752.546 1298.19 752.546H1301.39V724.211L1301.38 724.219Z" fill="#E0004D"/>
<path d="M1348.86 724.219L1378.15 736.326C1383.46 738.526 1387.12 743.496 1387.63 749.223L1391.09 787.466L1382.24 785.949L1355.73 754.268C1354.82 753.176 1353.47 752.546 1352.06 752.546H1348.86V724.211L1348.86 724.219Z" fill="#E0004D"/>
<path d="M1302.59 726.64L1273.31 738.748C1267.99 740.948 1264.34 745.917 1263.82 751.645L1260.36 789.888L1269.21 788.371L1295.72 756.69C1296.63 755.598 1297.98 754.968 1299.4 754.968H1302.6V726.633L1302.59 726.64Z" stroke="#001E60" stroke-width="2" stroke-miterlimit="10"/>
<path d="M1350.07 726.64L1379.36 738.748C1384.67 740.948 1388.33 745.917 1388.84 751.645L1392.3 789.888L1383.45 788.371L1356.94 756.69C1356.03 755.598 1354.68 754.968 1353.27 754.968H1350.07V726.633L1350.07 726.64Z" stroke="#001E60" stroke-width="2" stroke-miterlimit="10"/>
<path d="M1333.06 680.486C1343.45 676.41 1348.44 664.379 1344.22 653.613C1340 642.848 1328.16 637.426 1317.77 641.502C1307.39 645.578 1302.39 657.61 1306.61 668.375C1310.83 679.14 1322.67 684.563 1333.06 680.486Z" stroke="#001E60" stroke-width="2" stroke-miterlimit="10"/>
<path d="M-129.832 896C-55.832 896 186.049 896 214.849 896C243.65 896 254.666 881.5 228.175 855C207.379 834.197 -111.332 505.819 -177.998 439.152" stroke="#F15A22" stroke-width="2"/>
<path d="M457.891 559.152C383.891 559.152 142.009 559.152 113.209 559.152C84.4085 559.152 73.3922 573.652 99.8834 600.152C120.68 620.956 439.39 949.333 506.057 1016" stroke="#F15A22" stroke-width="2"/>
<path d="M-65.9993 80.5781H500.051" stroke="#F15A22" stroke-width="2" stroke-miterlimit="10"/>
<path d="M505.58 86.16C502.498 86.16 500 83.6617 500 80.58C500 77.4983 502.498 75 505.58 75C508.662 75 511.16 77.4983 511.16 80.58C511.16 83.6617 508.662 86.16 505.58 86.16Z" stroke="#F15A22" stroke-width="2" stroke-miterlimit="10"/>
</svg>
