<svg width="1405" height="400" viewBox="0 0 1405 400" fill="none" xmlns="http://www.w3.org/2000/svg">
<path d="M66 -47L520 407" stroke="#31AAD7" stroke-width="2"/>
<path d="M699 764C622.913 764 549.04 749.073 479.427 719.627C412.253 691.213 351.947 650.567 300.193 598.807C248.433 547.053 207.787 486.747 179.373 419.573C149.927 349.96 135 276.087 135 200C135 123.913 149.927 50.04 179.373 -19.5733C207.787 -86.7466 248.433 -147.053 300.193 -198.807C351.953 -250.567 412.253 -291.213 479.427 -319.627C549.04 -349.073 622.913 -364 699 -364C775.087 -364 848.96 -349.073 918.573 -319.627C985.747 -291.213 1046.05 -250.567 1097.81 -198.807C1149.57 -147.047 1190.21 -86.7466 1218.63 -19.5733C1248.07 50.04 1263 123.913 1263 200C1263 276.087 1248.07 349.96 1218.63 419.573C1190.21 486.747 1149.57 547.053 1097.81 598.807C1046.05 650.567 985.747 691.213 918.573 719.627C848.96 749.073 775.087 764 699 764ZM699 -117.333C614.24 -117.333 534.547 -84.3267 474.613 -24.3867C414.68 35.5467 381.667 115.24 381.667 200C381.667 284.76 414.673 364.453 474.613 424.387C534.547 484.327 614.24 517.333 699 517.333C783.76 517.333 863.453 484.327 923.387 424.387C983.327 364.453 1016.33 284.76 1016.33 200C1016.33 115.24 983.327 35.5467 923.387 -24.3867C863.453 -84.32 783.76 -117.333 699 -117.333Z" fill="#36BCEE"/>
<path d="M699 764C622.913 764 549.04 749.073 479.427 719.627C412.253 691.213 351.947 650.567 300.193 598.807C248.433 547.053 207.787 486.747 179.373 419.573C149.927 349.96 135 276.087 135 200C135 123.913 149.927 50.04 179.373 -19.5733C207.787 -86.7466 248.433 -147.053 300.193 -198.807C351.953 -250.567 412.253 -291.213 479.427 -319.627C549.04 -349.073 622.913 -364 699 -364C775.087 -364 848.96 -349.073 918.573 -319.627C985.747 -291.213 1046.05 -250.567 1097.81 -198.807C1149.57 -147.047 1190.21 -86.7466 1218.63 -19.5733C1248.07 50.04 1263 123.913 1263 200C1263 276.087 1248.07 349.96 1218.63 419.573C1190.21 486.747 1149.57 547.053 1097.81 598.807C1046.05 650.567 985.747 691.213 918.573 719.627C848.96 749.073 775.087 764 699 764ZM699 -117.333C614.24 -117.333 534.547 -84.3267 474.613 -24.3867C414.68 35.5467 381.667 115.24 381.667 200C381.667 284.76 414.673 364.453 474.613 424.387C534.547 484.327 614.24 517.333 699 517.333C783.76 517.333 863.453 484.327 923.387 424.387C983.327 364.453 1016.33 284.76 1016.33 200C1016.33 115.24 983.327 35.5467 923.387 -24.3867C863.453 -84.32 783.76 -117.333 699 -117.333Z" fill="black" fill-opacity="0.1"/>
<path d="M395.209 156.486C310.437 156.621 112.639 156.744 95.3768 156.772C73.7985 156.806 69.9268 168.372 74.536 177.613C78.2234 185.005 521.786 624.862 521.786 624.862" stroke="#1E22BE" stroke-width="2"/>
<circle cx="403.111" cy="156.664" r="7" stroke="#1E22BE" stroke-width="2"/>
<path d="M1076.66 -129C1220.23 14.6354 1351.99 146.453 1381.23 175.702C1417.77 212.264 1404.72 238.38 1381.23 246.214C1362.43 252.482 897 246.214 897 246.214" stroke="#1E22BE" stroke-width="2"/>
<circle cx="893" cy="246" r="3" stroke="#1E22BE" stroke-width="2"/>
<path d="M4.13611 438.092L33.0463 458.304C33.8369 458.852 34.9609 458.69 35.5113 457.913C35.5583 457.885 88.298 375.919 88.3162 375.844C88.4466 375.638 91.5579 340.515 91.5579 340.515C91.6275 339.899 91.3374 339.274 90.823 338.911C90.4133 338.613 89.9112 338.531 89.0617 338.721L56.5289 353.587L3.73305 435.618C3.14479 436.386 3.35461 437.506 4.1452 438.055M78.9214 347.227C80.7657 350.051 83.6139 352.05 86.9228 352.814L85.1144 373.482L84.9824 373.529L75.9358 375.054L74.0912 364.626C73.9209 363.674 72.9968 363.014 72.0335 363.176L61.4852 364.929L59.8825 355.986L59.843 355.818L78.8925 347.18L78.9214 347.227Z" fill="#1E22BE"/>
<path d="M1018.03 64.2972C1020.98 48.6531 1009.07 35 993.96 35C992.431 35 990.831 35.1422 989.267 35.4267C979.418 37.2755 971.56 45.2398 969.783 55.0529C968.752 60.7417 969.747 66.1461 972.094 70.7326C972.343 71.2304 972.414 71.7993 972.236 72.3682L969.107 81.7902C968.645 83.2124 969.747 84.599 971.098 84.599C971.312 84.599 971.56 84.5635 971.774 84.4924L981.231 81.328C981.445 81.2569 981.658 81.2213 981.871 81.2213C982.191 81.2213 982.547 81.2924 982.831 81.4702C986.173 83.1768 989.942 84.1368 993.924 84.1368C995.418 84.1368 996.911 83.9946 998.44 83.7457C1008.25 82.0035 1016.18 74.1459 1018.03 64.3683" fill="#1E22BE"/>
<path d="M1039.37 91.5677L1036.59 83.1412C1038.94 78.5191 1039.69 73.328 1038.76 68.137C1037.06 58.6794 1029.59 51.1063 1020.17 49.293C1020.66 50.6085 1021.09 51.9596 1021.41 53.3462C1028.45 55.444 1033.89 61.4172 1035.21 68.777C1035.99 73.1858 1035.35 77.5946 1033.36 81.5057C1032.9 82.3945 1032.82 83.3901 1033.14 84.3145L1035.95 92.7054C1035.95 92.7054 1035.95 92.7054 1035.95 92.7766C1035.95 92.7766 1035.95 92.7766 1035.88 92.7766L1027.53 90.0033C1027.17 89.8611 1026.78 89.8255 1026.39 89.8255C1025.82 89.8255 1025.22 89.9677 1024.68 90.2522C1020.74 92.2788 1016.33 92.9188 1011.92 92.1366C1007.9 91.4255 1004.31 89.47 1001.5 86.7322C1000.72 86.9456 999.936 87.1233 999.118 87.2656C998.514 87.3722 997.909 87.4433 997.305 87.5144C1000.79 91.7099 1005.66 94.6965 1011.24 95.692C1016.47 96.6165 1021.66 95.8698 1026.35 93.4521L1034.71 96.2254C1035.1 96.3676 1035.49 96.4031 1035.88 96.4031C1036.84 96.4031 1037.77 96.012 1038.48 95.3009C1039.47 94.3054 1039.83 92.8477 1039.37 91.5321" fill="#1E22BE"/>
</svg>
